<svg width="1056" height="430" viewBox="0 0 1056 430" fill="none" xmlns="http://www.w3.org/2000/svg">
<path d="M527.645 429.232C818.975 429.232 1055.14 413.597 1055.14 394.31C1055.14 375.024 818.975 359.389 527.645 359.389C236.314 359.389 0.144531 375.024 0.144531 394.31C0.144531 413.597 236.314 429.232 527.645 429.232Z" fill="#F2F2F2"/>
<path d="M507.424 12.0098C421.48 12.0098 359.773 67.1492 359.773 195.808C359.773 341.621 421.48 380.218 507.424 380.218C593.368 380.218 658.751 337.945 658.751 195.808C658.751 43.8681 593.368 12.0098 507.424 12.0098ZM507.989 331.818C448.462 331.818 417.363 296.895 417.363 195.902C417.363 106.79 449.736 59.7972 509.262 59.7972C568.789 59.7972 601.161 90.665 601.161 195.902C601.161 294.349 567.516 331.818 507.989 331.818Z" fill="#1A1A1A"/>
<path d="M308.312 278.517H272.777V173.878C272.777 168.32 270.57 162.99 266.64 159.06C262.71 155.13 257.379 152.922 251.822 152.922H243.495C240.743 152.922 238.018 153.464 235.476 154.517C232.933 155.57 230.623 157.114 228.677 159.06C226.731 161.006 225.188 163.316 224.134 165.859C223.081 168.401 222.539 171.126 222.539 173.878V278.517H122.309C120.247 278.517 118.22 277.984 116.425 276.97C114.63 275.956 113.127 274.495 112.063 272.729C110.998 270.963 110.409 268.952 110.351 266.891C110.293 264.83 110.768 262.788 111.732 260.965L217.814 60.1851C219.137 57.6818 219.938 54.9366 220.17 52.115C220.403 49.2934 220.061 46.454 219.166 43.7682C218.27 41.0824 216.84 38.6058 214.961 36.488C213.082 34.3702 210.794 32.6551 208.234 31.4462L201.971 28.489C197.109 26.1928 191.549 25.8537 186.444 27.542C181.338 29.2302 177.077 32.8166 174.542 37.559L45.1605 279.592C42.9573 283.713 41.8047 288.314 41.8047 292.988V292.988C41.8047 296.719 42.5397 300.414 43.9677 303.862C45.3957 307.31 47.4888 310.442 50.1275 313.081C52.7661 315.719 55.8987 317.812 59.3463 319.241C62.7938 320.669 66.4889 321.404 70.2205 321.404H222.539V387.571C222.539 390.869 223.189 394.136 224.451 397.183C225.714 400.231 227.564 403 229.896 405.333C232.229 407.665 234.998 409.515 238.046 410.778C241.093 412.04 244.36 412.69 247.658 412.69H247.658C250.957 412.69 254.223 412.04 257.271 410.778C260.319 409.515 263.088 407.665 265.42 405.333C267.753 403 269.603 400.231 270.865 397.183C272.128 394.136 272.777 390.869 272.777 387.571V321.404H308.312C313.999 321.404 319.453 319.144 323.474 315.123C327.496 311.102 329.755 305.648 329.755 299.96V299.96C329.755 294.273 327.496 288.819 323.474 284.798C319.453 280.777 313.999 278.517 308.312 278.517V278.517Z" fill="#B8907A"/>
<path d="M966.308 278.517H930.773V173.878C930.773 168.32 928.566 162.99 924.636 159.06C920.706 155.13 915.375 152.922 909.818 152.922H901.491C898.739 152.922 896.014 153.464 893.472 154.517C890.929 155.57 888.619 157.114 886.673 159.06C884.727 161.006 883.184 163.316 882.131 165.859C881.077 168.401 880.535 171.126 880.535 173.878V278.517H780.305C778.243 278.517 776.216 277.984 774.421 276.97C772.626 275.956 771.123 274.495 770.059 272.729C768.995 270.963 768.405 268.952 768.347 266.891C768.289 264.83 768.764 262.788 769.728 260.965L875.81 60.1851C877.133 57.6819 877.934 54.9366 878.167 52.115C878.399 49.2934 878.057 46.454 877.162 43.7682C876.266 41.0824 874.836 38.6058 872.957 36.488C871.078 34.3702 868.79 32.6551 866.23 31.4462L859.967 28.489C855.105 26.1928 849.546 25.8537 844.44 27.542C839.334 29.2302 835.073 32.8166 832.538 37.559L703.157 279.592C700.953 283.713 699.801 288.314 699.801 292.988V292.988C699.801 300.524 702.795 307.752 708.124 313.081C713.453 318.41 720.68 321.404 728.217 321.404H880.535V387.571C880.535 394.233 883.182 400.622 887.893 405.333C892.603 410.043 898.992 412.69 905.654 412.69V412.69C912.316 412.69 918.705 410.043 923.416 405.333C928.127 400.622 930.773 394.233 930.773 387.571V321.404H966.308C971.995 321.404 977.449 319.144 981.47 315.123C985.492 311.102 987.751 305.648 987.751 299.96V299.96C987.751 294.273 985.492 288.819 981.47 284.798C977.449 280.777 971.995 278.517 966.308 278.517Z" fill="#B8907A"/>
<path d="M318.112 266.264H282.578V161.624C282.578 158.872 282.036 156.147 280.983 153.605C279.93 151.062 278.386 148.752 276.44 146.806C274.494 144.86 272.184 143.317 269.642 142.263C267.099 141.21 264.374 140.668 261.622 140.668H253.296C247.738 140.668 242.408 142.876 238.478 146.806C234.548 150.736 232.34 156.066 232.34 161.624V266.264H132.11C130.048 266.264 128.021 265.731 126.226 264.716C124.431 263.702 122.928 262.241 121.864 260.475C120.799 258.709 120.209 256.698 120.151 254.637C120.093 252.576 120.569 250.535 121.532 248.712L227.615 47.9312C228.937 45.428 229.739 42.6827 229.971 39.8611C230.204 37.0395 229.862 34.2001 228.966 31.5143C228.071 28.8285 226.641 26.3519 224.762 24.2341C222.883 22.1163 220.594 20.4012 218.034 19.1923L211.772 16.2351C206.91 13.9389 201.35 13.5998 196.245 15.2881C191.139 16.9763 186.878 20.5627 184.343 25.3051L54.9613 267.338C52.7581 271.459 51.6055 276.06 51.6055 280.734V280.734C51.6055 288.27 54.5993 295.498 59.9283 300.827C65.2573 306.156 72.4849 309.15 80.0213 309.15H232.34V375.317C232.34 378.616 232.99 381.882 234.252 384.93C235.514 387.977 237.365 390.746 239.697 393.079C242.03 395.411 244.799 397.262 247.846 398.524C250.894 399.786 254.16 400.436 257.459 400.436H257.459C264.121 400.436 270.51 397.789 275.221 393.079C279.932 388.368 282.578 381.979 282.578 375.317V309.15H318.112C320.928 309.15 323.717 308.595 326.318 307.517C328.92 306.44 331.284 304.86 333.275 302.869C335.266 300.878 336.846 298.514 337.923 295.913C339.001 293.311 339.555 290.523 339.555 287.707V287.707C339.555 284.891 339.001 282.102 337.923 279.501C336.846 276.899 335.266 274.535 333.275 272.544C331.284 270.553 328.92 268.973 326.318 267.896C323.717 266.818 320.928 266.264 318.112 266.264V266.264Z" stroke="#1A1A1A" stroke-miterlimit="10"/>
<path d="M984.687 266.264H949.152V161.624C949.152 156.066 946.945 150.736 943.015 146.806C939.085 142.876 933.754 140.668 928.197 140.668H919.87C917.118 140.668 914.393 141.21 911.851 142.263C909.308 143.317 906.998 144.86 905.052 146.806C903.106 148.752 901.563 151.062 900.509 153.605C899.456 156.147 898.914 158.872 898.914 161.624V266.264H798.684C796.622 266.264 794.595 265.731 792.8 264.716C791.005 263.702 789.502 262.241 788.438 260.475C787.373 258.709 786.784 256.698 786.726 254.637C786.668 252.576 787.143 250.535 788.107 248.712L894.189 47.9312C895.512 45.428 896.313 42.6827 896.546 39.8611C896.778 37.0395 896.436 34.2001 895.541 31.5143C894.645 28.8285 893.215 26.3519 891.336 24.2341C889.457 22.1163 887.169 20.4012 884.609 19.1923L878.346 16.2351C873.484 13.9389 867.925 13.5998 862.819 15.2881C857.713 16.9763 853.452 20.5627 850.917 25.3051L721.536 267.338C719.332 271.459 718.18 276.06 718.18 280.734C718.18 288.27 721.174 295.498 726.503 300.827C731.832 306.156 739.059 309.15 746.596 309.15H898.914V375.317C898.914 381.979 901.561 388.368 906.271 393.079C910.982 397.789 917.371 400.436 924.033 400.436V400.436C930.695 400.436 937.084 397.789 941.795 393.079C946.506 388.368 949.152 381.979 949.152 375.317V309.15H984.687C987.503 309.15 990.291 308.595 992.892 307.517C995.494 306.44 997.858 304.86 999.849 302.869C1001.84 300.878 1003.42 298.514 1004.5 295.913C1005.58 293.311 1006.13 290.523 1006.13 287.707V287.707C1006.13 282.02 1003.87 276.565 999.849 272.544C995.828 268.523 990.374 266.264 984.687 266.264V266.264Z" stroke="#1A1A1A" stroke-miterlimit="10"/>
<path d="M527.03 0.982422C441.086 0.982422 379.379 56.1218 379.379 184.78C379.379 330.593 441.086 369.191 527.03 369.191C612.974 369.191 678.357 326.917 678.357 184.78C678.357 32.8407 612.974 0.982422 527.03 0.982422ZM527.595 320.791C468.068 320.791 436.969 285.868 436.969 184.875C436.969 95.7627 469.341 48.7699 528.868 48.7699C588.395 48.7699 620.767 79.6376 620.767 184.875C620.767 283.322 587.122 320.791 527.595 320.791V320.791Z" stroke="#1A1A1A" stroke-miterlimit="10"/>
<path d="M467.945 186.115C477.334 186.115 484.945 176.265 484.945 164.115C484.945 151.965 477.334 142.115 467.945 142.115C458.556 142.115 450.945 151.965 450.945 164.115C450.945 176.265 458.556 186.115 467.945 186.115Z" fill="#1A1A1A"/>
<path d="M560.445 186.615C569.834 186.615 577.445 176.765 577.445 164.615C577.445 152.465 569.834 142.615 560.445 142.615C551.056 142.615 543.445 152.465 543.445 164.615C543.445 176.765 551.056 186.615 560.445 186.615Z" fill="#1A1A1A"/>
<path d="M547.445 229.615C547.445 239.555 533.565 247.615 516.445 247.615C499.325 247.615 485.445 239.555 485.445 229.615C485.445 221.005 495.855 213.805 509.765 212.045C511.98 211.753 514.212 211.61 516.445 211.615C520.188 211.603 523.921 212.006 527.575 212.816C539.195 215.406 547.445 221.955 547.445 229.615Z" fill="#1A1A1A"/>
<path d="M471.945 181.115C481.334 181.115 488.945 171.265 488.945 159.115C488.945 146.965 481.334 137.115 471.945 137.115C462.556 137.115 454.945 146.965 454.945 159.115C454.945 171.265 462.556 181.115 471.945 181.115Z" stroke="#1A1A1A" stroke-miterlimit="10"/>
<path d="M564.445 181.615C573.834 181.615 581.445 171.765 581.445 159.615C581.445 147.465 573.834 137.615 564.445 137.615C555.056 137.615 547.445 147.465 547.445 159.615C547.445 171.765 555.056 181.615 564.445 181.615Z" stroke="#1A1A1A" stroke-miterlimit="10"/>
<path d="M520.445 242.615C537.566 242.615 551.445 234.556 551.445 224.615C551.445 214.674 537.566 206.615 520.445 206.615C503.324 206.615 489.445 214.674 489.445 224.615C489.445 234.556 503.324 242.615 520.445 242.615Z" stroke="#1A1A1A" stroke-miterlimit="10"/>
<path d="M527.947 214.316C527.955 215.573 527.483 216.786 526.627 217.707C526.223 218.149 525.732 218.502 525.185 218.744C524.637 218.986 524.046 219.113 523.447 219.115H513.447C512.215 219.073 511.05 218.544 510.207 217.644C509.364 216.745 508.911 215.548 508.947 214.316C508.942 213.341 509.228 212.386 509.767 211.574C511.98 211.263 514.213 211.109 516.447 211.115C520.195 211.103 523.931 211.533 527.577 212.396C527.824 213.005 527.95 213.658 527.947 214.316V214.316Z" fill="white"/>
<path d="M471.945 158.115C474.707 158.115 476.945 155.877 476.945 153.115C476.945 150.354 474.707 148.115 471.945 148.115C469.184 148.115 466.945 150.354 466.945 153.115C466.945 155.877 469.184 158.115 471.945 158.115Z" fill="white"/>
<path d="M564.945 158.115C567.707 158.115 569.945 155.877 569.945 153.115C569.945 150.354 567.707 148.115 564.945 148.115C562.184 148.115 559.945 150.354 559.945 153.115C559.945 155.877 562.184 158.115 564.945 158.115Z" fill="white"/>
<path opacity="0.3" d="M569.945 205.115C572.707 205.115 574.945 202.877 574.945 200.115C574.945 197.354 572.707 195.115 569.945 195.115C567.184 195.115 564.945 197.354 564.945 200.115C564.945 202.877 567.184 205.115 569.945 205.115Z" fill="#B8907A"/>
<path opacity="0.3" d="M447.945 205.115C450.707 205.115 452.945 202.877 452.945 200.115C452.945 197.354 450.707 195.115 447.945 195.115C445.184 195.115 442.945 197.354 442.945 200.115C442.945 202.877 445.184 205.115 447.945 205.115Z" fill="#B8907A"/>
</svg>
