<svg width="28" height="64" viewBox="0 0 28 64" fill="none" xmlns="http://www.w3.org/2000/svg">
<g clip-path="url(#clip0)">
<path d="M13.706 0C6.1484 0 0 6.1484 0 13.706V32.8903C0 40.4479 6.1484 46.5963 13.706 46.5963C21.2636 46.5963 27.412 40.4479 27.412 32.8903V13.706C27.412 6.1484 21.2636 0 13.706 0ZM24.6163 32.8903C24.6163 38.9061 19.7218 43.8006 13.706 43.8006C7.69021 43.8006 2.79566 38.9061 2.79566 32.8903V13.706C2.79566 7.69021 7.69021 2.79566 13.706 2.79566C19.7218 2.79566 24.6163 7.69021 24.6163 13.706V32.8903Z" fill="white"/>
<path d="M13.7064 9.26935C12.9343 9.26935 12.3086 9.89503 12.3086 10.6672V17.101C12.3086 17.8728 12.9343 18.4989 13.7064 18.4989C14.4782 18.4989 15.1043 17.8728 15.1043 17.101V10.6672C15.1043 9.89503 14.4786 9.26935 13.7064 9.26935Z" fill="white"/>
<path d="M17.4068 50.6036L18.5151 51.7119L13.7989 56.4281L9.08269 51.7119L10.191 50.6036L13.7989 54.2036L17.4068 50.6036Z" fill="white"/>
<path d="M17.4068 58.1755L18.5151 59.2838L13.7989 64L9.08269 59.2838L10.191 58.1755L13.7989 61.7755L17.4068 58.1755Z" fill="white"/>
</g>
<defs>
<clipPath id="clip0">
<path d="M0 0H27.412V64H0V0Z" fill="white"/>
</clipPath>
</defs>
</svg>
